<?xml version="1.0" standalone="no"?>
<!DOCTYPE svg PUBLIC "-//W3C//DTD SVG 20010904//EN"
 "http://www.w3.org/TR/2001/REC-SVG-20010904/DTD/svg10.dtd">
<svg version="1.0" xmlns="http://www.w3.org/2000/svg"
 width="48.000000pt" height="48.000000pt" viewBox="0 0 48.000000 48.000000"
 preserveAspectRatio="xMidYMid meet">

<g transform="translate(0.000000,48.000000) scale(0.100000,-0.100000)"
fill="#000000" stroke="none">
<path d="M102 377 c-45 -45 -82 -90 -82 -98 0 -9 9 -24 20 -34 20 -19 20 -19
-12 -52 l-33 -34 38 3 c33 2 43 -4 90 -50 29 -29 59 -52 66 -52 7 0 24 -9 38
-20 14 -11 33 -20 42 -20 21 0 191 170 191 191 0 9 -9 24 -20 34 -20 18 -20
18 7 47 l27 28 -29 0 c-21 0 -44 15 -87 56 -41 39 -64 55 -78 51 -11 -3 -26 3
-36 14 -31 34 -56 23 -142 -64z m210 -64 c10 -9 18 -21 18 -27 0 -7 -26 -38
-59 -70 -61 -61 -92 -70 -115 -34 -9 15 0 28 54 83 35 36 69 65 74 65 5 0 18
-7 28 -17z"/>
</g>
</svg>
